<svg height="511pt" viewBox="0 -25 511.99823 511" width="511pt" xmlns="http://www.w3.org/2000/svg"><path d="m382 200.5c-5.519531 0-10 4.480469-10 10s4.480469 10 10 10 10-4.480469 10-10-4.480469-10-10-10zm0 0"/><path d="m412 68.890625v-58.390625c0-5.523438-4.480469-10-10-10h-292c-5.523438 0-10 4.476562-10 10v58.394531l-99.496094 301.640625c-1.332031 4.042969.039063 8.488282 3.417969 11.074219 10.53125 8.058594 33.449219 15.660156 69.886719 23.167969l-2.300782 9.695312c-.628906 2.65625-.144531 5.453125 1.339844 7.742188 1.484375 2.292968 3.839844 3.875 6.519532 4.386718 24.324218 4.632813 52.003906 8.167969 82.394531 10.539063l-1.238281 9.414063c-.359376 2.738281.429687 5.503906 2.179687 7.640624 1.753906 2.140626 4.308594 3.457032 7.066406 3.640626 36.75 2.472656 75.292969 2.664062 86.230469 2.664062s49.476562-.191406 86.230469-2.664062c2.753906-.183594 5.3125-1.5 7.0625-3.640626 1.75-2.136718 2.539062-4.898437 2.179687-7.640624l-1.238281-9.414063c30.390625-2.371094 58.070313-5.90625 82.394531-10.539063 2.679688-.507812 5.035156-2.09375 6.519532-4.386718 1.484374-2.289063 1.96875-5.085938 1.339843-7.742188l-2.296875-9.695312c36.433594-7.507813 59.351563-15.109375 69.882813-23.167969 3.382812-2.585937 4.753906-7.03125 3.421875-11.074219zm-292-48.390625h272v40c-14.816406 0-261.652344 0-272 0zm-97.996094 348.695312 95.226563-288.699218h33.449219l-72.257813 304.8125c-32.128906-6.597656-48.296875-12.203125-56.417969-16.113282zm149.230469-288.695312h37.367187l-44.226562 336.78125c-25.839844-1.984375-49.632812-4.824219-70.96875-8.46875zm84.765625 360c-9.726562 0-41.582031-.15625-74.246094-1.96875l47.019532-358.03125h54.453124l45.796876 348.742188 1.222656 9.289062c-32.664063 1.8125-64.523438 1.96875-74.246094 1.96875zm177.574219-55.191406-32.753907-138.15625c-1.273437-5.375-6.664062-8.699219-12.039062-7.425782-5.371094 1.273438-8.695312 6.664063-7.421875 12.039063l37.234375 157.046875c-21.335938 3.644531-45.128906 6.484375-70.96875 8.46875l-44.226562-336.78125h37.363281l22.148437 93.414062c1.265625 5.339844 6.625 8.707032 12.035156 7.425782 5.375-1.273438 8.699219-6.664063 7.425782-12.035156l-21.054688-88.804688h33.453125l95.226563 288.699219c-8.121094 3.90625-24.289063 9.511719-56.421875 16.109375zm0 0"/></svg>